<?xml version="1.0" standalone="no"?><!DOCTYPE svg PUBLIC "-//W3C//DTD SVG 1.1//EN" "http://www.w3.org/Graphics/SVG/1.1/DTD/svg11.dtd"><svg t="1588241804795" class="icon" viewBox="0 0 1024 1024" version="1.1" xmlns="http://www.w3.org/2000/svg" p-id="2766" xmlns:xlink="http://www.w3.org/1999/xlink" width="200" height="200"><defs><style type="text/css"></style></defs><path d="M512.853333 128.853333h128l42.666667 42.666667v184.32h5.973333c13.090133 1.706667 19.029333 9.096533 17.92 22.186667L699.733333 418.133333l-2.56 11.093334a103.424 103.424 0 0 1-4.266666 9.386666c-1.109333 1.706667-4.266667 2.850133-9.386667 3.413334 0 15.36-1.416533 29.303467-4.266667 41.813333-6.8096 29.576533-22.186667 56.32-46.08 80.213333-9.096533 9.659733-21.009067 19.063467-35.84 28.16V682.666667c81.92 15.36 154.1632 54.340267 216.746667 116.906666 15.940267 15.957333 29.013333 30.737067 39.253333 44.407467V938.666667H170.666667v-93.013334c9.659733-13.653333 23.04-29.013333 40.106666-46.08 62.0032-62.0032 133.973333-100.6592 215.893334-116.053333V591.36a176.366933 176.366933 0 0 1-34.986667-27.3408c-33.006933-33.006933-49.493333-72.823467-49.493333-119.466667L341.333333 442.026667c-4.5568-0.5632-7.68-1.706667-9.386666-3.413334-1.706667-3.413333-3.140267-6.5536-4.266667-9.386666l-1.706667-11.093334-5.973333-30.72-0.853333-2.56c-2.286933-17.066667 3.413333-26.7264 17.066666-29.013333h5.973334L341.333333 171.52c-2.850133-61.44 25.890133-90.1632 86.186667-86.186667h60.586667c15.36 2.850133 23.6032 13.653333 24.746666 32.426667v11.093333z" p-id="2767"></path></svg>