<?xml version="1.0" standalone="no"?><!DOCTYPE svg PUBLIC "-//W3C//DTD SVG 1.1//EN" "http://www.w3.org/Graphics/SVG/1.1/DTD/svg11.dtd"><svg t="1590643933820" class="icon" viewBox="0 0 1066 1024" version="1.1" xmlns="http://www.w3.org/2000/svg" p-id="5915" xmlns:xlink="http://www.w3.org/1999/xlink" width="208.203125" height="200"><defs><style type="text/css"></style></defs><path d="M0 88.86166L59.093004 28.435731a97.747826 97.747826 0 0 1 137.735572 0L611.368218 444.308298a97.747826 97.747826 0 0 1 0 137.735572l-414.539642 413.206717a96.859209 96.859209 0 0 1-137.735572 0L0 936.157584l355.446638-355.446639A96.859209 96.859209 0 0 0 355.446638 444.308298z m781.982604 355.446638l-355.446638-355.446638L485.62897 28.435731a97.747826 97.747826 0 0 1 137.735572 0L1037.904184 444.308298a97.747826 97.747826 0 0 1 0 137.735572L622.031617 995.250587a96.859209 96.859209 0 0 1-137.735572 0l-57.760079-59.093003 355.446638-355.446639a97.747826 97.747826 0 0 0 0-136.402647z" p-id="5916"></path></svg>